<?xml version="1.0" encoding="UTF-8" standalone="no"?>
<!DOCTYPE svg PUBLIC "-//W3C//DTD SVG 1.1//EN"
 "http://www.w3.org/Graphics/SVG/1.1/DTD/svg11.dtd">
<!-- Generated by graphviz version 2.40.1 (20161225.0304)
 -->
<!-- Title: G Pages: 1 -->
<svg width="692pt" height="383pt"
 viewBox="0.00 0.00 692.18 383.40" xmlns="http://www.w3.org/2000/svg" xmlns:xlink="http://www.w3.org/1999/xlink">
<g id="graph0" class="graph" transform="scale(1 1) rotate(0) translate(4 379.4)">
<title>G</title>
<polygon fill="#ffffff" stroke="transparent" points="-4,4 -4,-379.4 688.181,-379.4 688.181,4 -4,4"/>
<!-- url -->
<g id="node1" class="node">
<title>url</title>
<path fill="#ffff00" stroke="#000000" d="M331.6927,-369.4C331.6927,-369.4 321.5067,-363.4 321.5067,-363.4 316.4137,-360.4 316.4137,-354.4 321.5067,-351.4 321.5067,-351.4 331.6927,-345.4 331.6927,-345.4 336.7856,-342.4 346.9716,-342.4 352.0646,-345.4 352.0646,-345.4 362.2506,-351.4 362.2506,-351.4 367.3435,-354.4 367.3435,-360.4 362.2506,-363.4 362.2506,-363.4 352.0646,-369.4 352.0646,-369.4 346.9716,-372.4 336.7856,-372.4 331.6927,-369.4"/>
<text text-anchor="middle" x="341.8786" y="-353.2" font-family="Times,serif" font-size="14.00" fill="#000000">url</text>
</g>
<!-- in mockList -->
<g id="node2" class="node">
<title>in mockList</title>
<polygon fill="none" stroke="#0000ff" points="341.8786,-302.4 260.4102,-284.4 341.8786,-266.4 423.3471,-284.4 341.8786,-302.4"/>
<text text-anchor="middle" x="341.8786" y="-280.2" font-family="Times,serif" font-size="14.00" fill="#000000">in mockList</text>
</g>
<!-- url&#45;&gt;in mockList -->
<g id="edge1" class="edge">
<title>url&#45;&gt;in mockList</title>
<path fill="none" stroke="#000000" d="M341.8786,-339.3551C341.8786,-331.2828 341.8786,-321.5764 341.8786,-312.5817"/>
<polygon fill="#000000" stroke="#000000" points="345.3787,-312.4903 341.8786,-302.4904 338.3787,-312.4904 345.3787,-312.4903"/>
</g>
<!-- in okList -->
<g id="node3" class="node">
<title>in okList</title>
<polygon fill="none" stroke="#0000ff" points="258.8786,-213.6 194.283,-195.6 258.8786,-177.6 323.4742,-195.6 258.8786,-213.6"/>
<text text-anchor="middle" x="258.8786" y="-191.4" font-family="Times,serif" font-size="14.00" fill="#000000">in okList</text>
</g>
<!-- in mockList&#45;&gt;in okList -->
<g id="edge2" class="edge">
<title>in mockList&#45;&gt;in okList</title>
<path fill="none" stroke="#c0c0c0" d="M327.7988,-269.3363C314.5235,-255.1333 294.4723,-233.681 279.4147,-217.5711"/>
<polygon fill="#c0c0c0" stroke="#c0c0c0" points="281.861,-215.0627 272.4755,-210.147 276.747,-219.8426 281.861,-215.0627"/>
<text text-anchor="middle" x="314.8786" y="-235.8" font-family="Times,serif" font-size="14.00" fill="#000000">no</text>
</g>
<!-- have mock -->
<g id="node5" class="node">
<title>have mock</title>
<polygon fill="none" stroke="#0000ff" points="425.8786,-213.6 350.5844,-195.6 425.8786,-177.6 501.1728,-195.6 425.8786,-213.6"/>
<text text-anchor="middle" x="425.8786" y="-191.4" font-family="Times,serif" font-size="14.00" fill="#000000">have mock</text>
</g>
<!-- in mockList&#45;&gt;have mock -->
<g id="edge3" class="edge">
<title>in mockList&#45;&gt;have mock</title>
<path fill="none" stroke="#c0c0c0" d="M356.1281,-269.3363C369.4829,-255.2183 389.6133,-233.9376 404.8208,-217.8611"/>
<polygon fill="#c0c0c0" stroke="#c0c0c0" points="407.5102,-220.1112 411.8396,-210.4412 402.4249,-215.3007 407.5102,-220.1112"/>
<text text-anchor="middle" x="401.2082" y="-235.8" font-family="Times,serif" font-size="14.00" fill="#000000">yes</text>
</g>
<!-- in passList -->
<g id="node4" class="node">
<title>in passList</title>
<polygon fill="none" stroke="#0000ff" points="94.8786,-124.8 20.5705,-106.8 94.8786,-88.8 169.1868,-106.8 94.8786,-124.8"/>
<text text-anchor="middle" x="94.8786" y="-102.6" font-family="Times,serif" font-size="14.00" fill="#000000">in passList</text>
</g>
<!-- in okList&#45;&gt;in passList -->
<g id="edge6" class="edge">
<title>in okList&#45;&gt;in passList</title>
<path fill="none" stroke="#c0c0c0" d="M236.7609,-183.624C208.5112,-168.3279 159.4127,-141.7428 127.0295,-124.2085"/>
<polygon fill="#c0c0c0" stroke="#c0c0c0" points="128.4245,-120.9838 117.9643,-119.3001 125.0915,-127.1394 128.4245,-120.9838"/>
<text text-anchor="middle" x="198.8786" y="-147" font-family="Times,serif" font-size="14.00" fill="#000000">no</text>
</g>
<!-- empty response -->
<g id="node7" class="node">
<title>empty response</title>
<ellipse fill="#00ff00" stroke="#000000" cx="258.8786" cy="-106.8" rx="71.2503" ry="18"/>
<text text-anchor="middle" x="258.8786" y="-102.6" font-family="Times,serif" font-size="14.00" fill="#000000">empty response</text>
</g>
<!-- in okList&#45;&gt;empty response -->
<g id="edge7" class="edge">
<title>in okList&#45;&gt;empty response</title>
<path fill="none" stroke="#c0c0c0" d="M258.8786,-177.2006C258.8786,-165.0949 258.8786,-149.0076 258.8786,-135.2674"/>
<polygon fill="#c0c0c0" stroke="#c0c0c0" points="262.3787,-134.872 258.8786,-124.872 255.3787,-134.8721 262.3787,-134.872"/>
<text text-anchor="middle" x="268.2082" y="-147" font-family="Times,serif" font-size="14.00" fill="#000000">yes</text>
</g>
<!-- abort -->
<g id="node8" class="node">
<title>abort</title>
<ellipse fill="#ff0000" stroke="#000000" cx="30.8786" cy="-18" rx="30.7577" ry="18"/>
<text text-anchor="middle" x="30.8786" y="-13.8" font-family="Times,serif" font-size="14.00" fill="#000000">abort</text>
</g>
<!-- in passList&#45;&gt;abort -->
<g id="edge8" class="edge">
<title>in passList&#45;&gt;abort</title>
<path fill="none" stroke="#c0c0c0" d="M83.7307,-91.3322C74.1215,-77.9995 60.0691,-58.5018 48.8694,-42.9621"/>
<polygon fill="#c0c0c0" stroke="#c0c0c0" points="51.6734,-40.8666 42.9871,-34.8005 45.9946,-44.9595 51.6734,-40.8666"/>
<text text-anchor="middle" x="75.8786" y="-58.2" font-family="Times,serif" font-size="14.00" fill="#000000">no</text>
</g>
<!-- make real request -->
<g id="node10" class="node">
<title>make real request</title>
<ellipse fill="#ffff00" stroke="#000000" cx="158.8786" cy="-18" rx="79.2709" ry="18"/>
<text text-anchor="middle" x="158.8786" y="-13.8" font-family="Times,serif" font-size="14.00" fill="#000000">make real request</text>
</g>
<!-- in passList&#45;&gt;make real request -->
<g id="edge9" class="edge">
<title>in passList&#45;&gt;make real request</title>
<path fill="none" stroke="#c0c0c0" d="M106.0266,-91.3322C115.3073,-78.4553 128.7326,-59.8276 139.7297,-44.5692"/>
<polygon fill="#c0c0c0" stroke="#c0c0c0" points="142.8667,-46.2026 145.8743,-36.0436 137.1879,-42.1097 142.8667,-46.2026"/>
<text text-anchor="middle" x="142.2082" y="-58.2" font-family="Times,serif" font-size="14.00" fill="#000000">yes</text>
</g>
<!-- mocked response -->
<g id="node6" class="node">
<title>mocked response</title>
<ellipse fill="#00ff00" stroke="#000000" cx="425.8786" cy="-106.8" rx="77.6136" ry="18"/>
<text text-anchor="middle" x="425.8786" y="-102.6" font-family="Times,serif" font-size="14.00" fill="#000000">mocked response</text>
</g>
<!-- have mock&#45;&gt;mocked response -->
<g id="edge5" class="edge">
<title>have mock&#45;&gt;mocked response</title>
<path fill="none" stroke="#c0c0c0" d="M425.8786,-177.2006C425.8786,-165.0949 425.8786,-149.0076 425.8786,-135.2674"/>
<polygon fill="#c0c0c0" stroke="#c0c0c0" points="429.3787,-134.872 425.8786,-124.872 422.3787,-134.8721 429.3787,-134.872"/>
<text text-anchor="middle" x="435.2082" y="-147" font-family="Times,serif" font-size="14.00" fill="#000000">yes</text>
</g>
<!-- response with 500 -->
<g id="node9" class="node">
<title>response with 500</title>
<ellipse fill="#ff0000" stroke="#000000" cx="602.8786" cy="-106.8" rx="81.1052" ry="18"/>
<text text-anchor="middle" x="602.8786" y="-102.6" font-family="Times,serif" font-size="14.00" fill="#000000">response with 500</text>
</g>
<!-- have mock&#45;&gt;response with 500 -->
<g id="edge4" class="edge">
<title>have mock&#45;&gt;response with 500</title>
<path fill="none" stroke="#c0c0c0" d="M450.4897,-183.2527C478.9688,-168.9649 526.3481,-145.195 560.7273,-127.9471"/>
<polygon fill="#c0c0c0" stroke="#c0c0c0" points="562.6841,-130.8812 570.0528,-123.2685 559.5451,-124.6245 562.6841,-130.8812"/>
<text text-anchor="middle" x="537.8786" y="-147" font-family="Times,serif" font-size="14.00" fill="#000000">no</text>
</g>
</g>
</svg>
